<?xml version="1.0" encoding="utf-8"?>
<!-- Generator: Adobe Illustrator 26.0.1, SVG Export Plug-In . SVG Version: 6.00 Build 0)  -->
<svg version="1.1" id="Layer_1" xmlns="http://www.w3.org/2000/svg" xmlns:xlink="http://www.w3.org/1999/xlink" x="0px" y="0px"
	 viewBox="0 0 595.28 400" style="enable-background:new 0 0 595.28 400;" xml:space="preserve">
<style type="text/css">
	.st0{fill:#9FC9EB;}
	.st1{fill:#033434;}
	.st2{fill:#FFFFFF;}
	.st3{fill:none;}
	.st4{font-family:'BankGothicBT-Medium';}
	.st5{font-size:42.6316px;}
	.st6{font-size:10.6579px;}
</style>
<rect class="st0" width="595.28" height="400"/>
<path class="st1" d="M254.89,123.59c28.14-72.94,141.64-14.88,95.17,48.01c-12.62,16.04-16.86,33.38-18.27,52.34
	c-2.8,32.95-57.97,44.1-71.9,10.8c17.7,26.74,63.24,16.42,63.92-16.35c0.51-8.81,0.01-18.08,2.86-26.27
	c9.34-22,32.13-42.61,19.28-67.77C331.33,86.76,271.39,87.74,254.89,123.59z"/>
<path class="st1" d="M314.71,184.74c18.26-18.07,32.65-49.02,4.53-64.96c-18.61-14.12-63.14,9.99-42.22,28.78
	c22.4,6.54,35.56,33.74,18.52,51.16c10.74-20.87,4.3-36.89-18.8-46.2c-33.04-19.24,18.07-55.52,43.16-39
	c34.29,20,17.57,52.12-4.07,71.02C315.45,185.27,315.08,185,314.71,184.74z"/>
<path class="st2" d="M250.55,209.97c0.31-2.17,0.61-4.35,0.94-6.52c0.89-5.74,1.74-11.48,2.73-17.19c0.27-1.54,0.84-3.07,1.52-4.42
	c1.08-2.15,2.99-2.19,4.11-0.07c0.85,1.61,1.39,3.46,2.08,5.2c0.63,1.59,1.18,3.24,1.92,4.76c0.71,1.46,1.25,1.46,2.12,0.15
	c0.66-1,1.19-2.14,1.83-3.16c0.58-0.94,1.16-1.93,1.88-2.7c1.58-1.71,3.57-1.62,5.01,0.25c0.75,0.97,1.28,2.18,1.92,3.27
	c0.53,0.92,1.01,1.9,1.63,2.73c0.79,1.05,1.77,1.19,2.76,0.34c0.83-0.72,1.64-1.49,2.45-2.23c3.76-3.45,7.99-3.95,12.47-2.91
	c0.85,0.2,1.38,0.81,1.2,1.93c-0.17,1.04-0.8,1.34-1.61,1.22c-0.58-0.09-1.15-0.23-1.72-0.31c-3.55-0.5-6.73,0.48-9.48,3.31
	c-0.41,0.42-0.83,0.81-1.26,1.19c-2.74,2.43-5.38,2-7.45-1.28c-0.65-1.02-1.18-2.15-1.73-3.25c-1.48-2.94-2.05-2.96-3.7-0.08
	c-0.48,0.84-0.91,1.72-1.4,2.55c-0.36,0.61-0.74,1.22-1.17,1.75c-1.81,2.2-3.96,2.17-5.51-0.31c-0.95-1.52-1.61-3.32-2.3-5.05
	c-0.67-1.68-1.21-3.42-1.8-5.14c-0.14-0.01-0.28-0.02-0.42-0.02c-0.5,2.18-1.13,4.32-1.48,6.53c-1.05,6.79-1.97,13.61-2.99,20.41
	c-0.2,1.36-0.47,2.76-0.97,3.99c-0.3,0.74-1.14,1.67-1.69,1.63c-0.65-0.05-1.63-0.93-1.79-1.67c-0.7-3.2-1.32-6.45-1.67-9.73
	c-1.15-10.79-2.17-21.59-3.25-32.39c-0.08-0.79-0.22-1.58-0.56-2.41c-0.26,1.63-0.51,3.26-0.79,4.88
	c-0.79,4.56-1.51,9.14-2.42,13.66c-0.35,1.74-0.98,3.47-1.77,4.99c-1.3,2.53-3.37,2.62-4.98,0.37c-0.64-0.89-1.12-1.93-1.68-2.89
	c-0.56-0.96-1.1-1.95-1.73-2.85c-0.65-0.93-1.38-0.91-2.01,0.07c-0.41,0.63-0.77,1.31-1.14,1.98c-0.52,0.94-0.97,1.93-1.53,2.82
	c-2.19,3.47-4.89,3.98-7.76,1.32c-2.35-2.17-4.8-4.07-7.84-4.05c-2.17,0.02-4.33,0.51-6.49,0.81c-0.39,0.06-0.83,0.44-1.15,0.32
	c-0.56-0.21-1.37-0.58-1.49-1.08c-0.12-0.52,0.35-1.71,0.75-1.86c5.38-2,10.7-2.48,15.7,1.47c0.82,0.65,1.58,1.4,2.39,2.07
	c1.41,1.17,2.38,1.04,3.49-0.53c0.46-0.65,0.83-1.39,1.23-2.1c0.47-0.85,0.87-1.75,1.37-2.57c2.05-3.35,4.7-3.47,6.89-0.26
	c0.76,1.11,1.36,2.39,2.04,3.58c0.4,0.7,0.81,1.39,1.41,2.39c0.46-1.03,0.95-1.75,1.11-2.57c1.02-5.04,1.99-10.09,2.94-15.15
	c0.48-2.56,0.86-5.14,1.32-7.7c0.12-0.67,0.25-1.44,0.6-1.93c0.45-0.64,1.14-1.45,1.71-1.44c0.57,0.01,1.49,0.83,1.64,1.49
	c0.69,3.03,1.35,6.11,1.69,9.22c1.16,10.78,2.17,21.59,3.24,32.39c0.09,0.93,0.24,1.85,0.37,2.78
	C250.35,209.95,250.45,209.96,250.55,209.97z"/>
<path class="st1" d="M354.27,54.79c4.54,0,9.08-0.03,13.62,0.01c6.86,0.07,11.43,4.47,11.59,11.39c0.14,6.3,0.13,12.61,0,18.91
	c-0.14,6.64-4.93,11.2-11.76,11.38c-2.3,0.06-4.61-0.08-6.91,0.07c-0.81,0.05-1.78,0.5-2.33,1.09c-2.02,2.18-2.63,4.49-4.55,6.76
	c-1.22,1.44-2.71,2.15-4.55,1.48c-1.87-0.69-2.74-2.15-2.81-4.15c-0.06-1.64-0.88-3.85-1.74-4.74c-0.85-0.88-3.07-0.41-4.68-0.54
	c-6.87-0.58-11.1-5.06-11.17-11.99c-0.07-6.04-0.07-12.08,0.01-18.12c0.09-6.92,4.77-11.51,11.67-11.55
	C345.19,54.77,349.73,54.79,354.27,54.79z M354.34,58.62c-2.3,0-4.6,0-6.91,0s-4.6-0.03-6.91,0.02c-4.83,0.09-7.64,2.87-7.68,7.69
	c-0.05,6.17-0.05,12.34,0.01,18.5c0.05,4.78,2.94,7.6,7.7,7.68c1.97,0.03,3.95,0.01,5.92,0.02c1.75,0.01,2.7,0.84,2.66,2.68
	c-0.02,1.33,1.23,2.66,1.29,3.98c0.03,0.55,0.29,1.08,0.45,1.62c0.56-0.25,1.26-0.36,1.64-0.77c1.77-1.96,2.08-4.1,3.95-5.96
	c0.8-0.79,2.09-1.4,3.2-1.49c2.75-0.21,5.52-0.04,8.28-0.08c4.78-0.08,7.72-3.08,7.73-7.9c0.02-5.9,0.01-11.81,0-17.71
	c0-5.38-2.8-8.23-8.14-8.27C363.15,58.6,358.75,58.62,354.34,58.62z"/>
<path class="st2" d="M353.12,72.72c3.48,0,6.96,0.01,10.43-0.01c1.2-0.01,2.44,0.17,2.49,1.61c0.05,1.61-1.3,1.79-2.53,1.79
	c-7.02,0.01-14.04,0.01-21.07-0.01c-1.23,0-2.55-0.15-2.46-1.83c0.08-1.55,1.36-1.54,2.5-1.54
	C346.03,72.72,349.58,72.72,353.12,72.72z"/>
<path class="st2" d="M352.86,68c-3.55,0-7.1-0.01-10.65,0c-1.13,0-2.24-0.13-2.24-1.58c0-1.42,1.08-1.62,2.23-1.62
	c7.23,0.01,14.46-0.04,21.69,0.07c0.74,0.01,1.98,0.83,2.09,1.44c0.24,1.32-0.89,1.69-2.08,1.69C360.22,68,356.54,68,352.86,68z"/>
<path class="st2" d="M361.07,82.36c-2.04,0-4.08-0.01-6.12,0c-1.17,0.01-2.23-0.33-2.27-1.65c-0.04-1.41,1.16-1.67,2.24-1.69
	c4.15-0.05,8.3-0.04,12.44,0c1.1,0.01,2.25,0.34,2.16,1.76c-0.09,1.35-1.16,1.59-2.32,1.58C365.15,82.34,363.11,82.36,361.07,82.36z
	"/>
<rect x="119.26" y="265.61" class="st3" width="455.4" height="76.49"/>
<text transform="matrix(1.073 0 0 1 119.2588 283.6406)" class="st2 st4 st5">ECHOASSIST</text>
<text transform="matrix(1.073 0 0 1 155.5557 296.3994)" class="st1 st4 st6">EVERY VOICE, EVERY WORD, EVERYWHERE</text>
</svg>
